  <svg xmlns="http://www.w3.org/2000/svg" version="1.1" xmlns:xlink="http://www.w3.org/1999/xlink" xmlns:svgjs="http://svgjs.dev/svgjs" viewBox="0 0 800 800"><defs><linearGradient x1="50%" y1="0%" x2="50%" y2="100%" id="ffflurry-grad" gradientTransform="rotate(270)"><stop stop-color="hsl(238, 81%, 7%)" stop-opacity="1" offset="0%"></stop><stop stop-color="hsl(185, 9%, 44%)" stop-opacity="1" offset="45%"></stop><stop stop-color="hsl(141, 12%, 14%)" stop-opacity="1" offset="100%"></stop></linearGradient></defs><rect width="100%" height="100%" fill="hsl(238, 81%, 7%)"></rect><g fill="url(#ffflurry-grad)"><rect width="134" height="1" x="623" y="160.5" rx="0.5" transform="rotate(45, 690, 161)" opacity="0.37"></rect><rect width="184" height="1" x="677" y="114.5" rx="0.5" transform="rotate(45, 769, 115)" opacity="0.43"></rect><rect width="297" height="1" x="-30.5" y="495.5" rx="0.5" transform="rotate(45, 118, 496)" opacity="0.66"></rect><rect width="226" height="1" x="520" y="247.5" rx="0.5" transform="rotate(45, 633, 248)" opacity="0.70"></rect><rect width="72" height="1" x="657" y="584.5" rx="0.5" transform="rotate(45, 693, 585)" opacity="0.90"></rect><rect width="145" height="1" x="350.5" y="764.5" rx="0.5" transform="rotate(45, 423, 765)" opacity="0.20"></rect><rect width="94" height="1" x="223" y="318.5" rx="0.5" transform="rotate(45, 270, 319)" opacity="0.11"></rect><rect width="107" height="1" x="338.5" y="456.5" rx="0.5" transform="rotate(45, 392, 457)" opacity="0.84"></rect><rect width="273" height="1" x="-93.5" y="200.5" rx="0.5" transform="rotate(45, 43, 201)" opacity="0.48"></rect><rect width="107" height="1" x="73.5" y="49.5" rx="0.5" transform="rotate(45, 127, 50)" opacity="0.11"></rect><rect width="71" height="1" x="454.5" y="100.5" rx="0.5" transform="rotate(45, 490, 101)" opacity="0.15"></rect><rect width="64" height="1" x="298" y="757.5" rx="0.5" transform="rotate(45, 330, 758)" opacity="0.50"></rect><rect width="126" height="1" x="420" y="460.5" rx="0.5" transform="rotate(45, 483, 461)" opacity="0.41"></rect><rect width="207" height="1" x="152.5" y="129.5" rx="0.5" transform="rotate(45, 256, 130)" opacity="0.61"></rect><rect width="244" height="1" x="467" y="614.5" rx="0.5" transform="rotate(45, 589, 615)" opacity="0.13"></rect><rect width="117" height="1" x="509.5" y="118.5" rx="0.5" transform="rotate(45, 568, 119)" opacity="0.91"></rect><rect width="98" height="1" x="146" y="601.5" rx="0.5" transform="rotate(45, 195, 602)" opacity="0.33"></rect><rect width="266" height="1" x="-80" y="587.5" rx="0.5" transform="rotate(45, 53, 588)" opacity="0.54"></rect><rect width="96" height="1" x="440" y="31.5" rx="0.5" transform="rotate(45, 488, 32)" opacity="0.98"></rect><rect width="78" height="1" x="386" y="446.5" rx="0.5" transform="rotate(45, 425, 447)" opacity="0.56"></rect><rect width="103" height="1" x="633.5" y="669.5" rx="0.5" transform="rotate(45, 685, 670)" opacity="0.37"></rect><rect width="269" height="1" x="428.5" y="335.5" rx="0.5" transform="rotate(45, 563, 336)" opacity="0.21"></rect><rect width="86" height="1" x="310" y="433.5" rx="0.5" transform="rotate(45, 353, 434)" opacity="0.26"></rect><rect width="112" height="1" x="192" y="711.5" rx="0.5" transform="rotate(45, 248, 712)" opacity="0.80"></rect><rect width="177" height="1" x="338.5" y="350.5" rx="0.5" transform="rotate(45, 427, 351)" opacity="0.14"></rect><rect width="73" height="1" x="363.5" y="536.5" rx="0.5" transform="rotate(45, 400, 537)" opacity="0.22"></rect><rect width="342" height="1" x="-32" y="159.5" rx="0.5" transform="rotate(45, 139, 160)" opacity="0.96"></rect><rect width="57" height="1" x="286.5" y="44.5" rx="0.5" transform="rotate(45, 315, 45)" opacity="0.96"></rect><rect width="71" height="1" x="735.5" y="203.5" rx="0.5" transform="rotate(45, 771, 204)" opacity="0.15"></rect><rect width="169" height="1" x="508.5" y="33.5" rx="0.5" transform="rotate(45, 593, 34)" opacity="0.54"></rect><rect width="189" height="1" x="462.5" y="180.5" rx="0.5" transform="rotate(45, 557, 181)" opacity="0.84"></rect><rect width="206" height="1" x="152" y="414.5" rx="0.5" transform="rotate(45, 255, 415)" opacity="0.96"></rect><rect width="77" height="1" x="282.5" y="589.5" rx="0.5" transform="rotate(45, 321, 590)" opacity="0.73"></rect><rect width="69" height="1" x="268.5" y="206.5" rx="0.5" transform="rotate(45, 303, 207)" opacity="0.74"></rect><rect width="107" height="1" x="441.5" y="706.5" rx="0.5" transform="rotate(45, 495, 707)" opacity="0.78"></rect><rect width="234" height="1" x="505" y="701.5" rx="0.5" transform="rotate(45, 622, 702)" opacity="0.36"></rect><rect width="111" height="1" x="263.5" y="498.5" rx="0.5" transform="rotate(45, 319, 499)" opacity="0.39"></rect><rect width="174" height="1" x="42" y="375.5" rx="0.5" transform="rotate(45, 129, 376)" opacity="0.09"></rect><rect width="96" height="1" x="424" y="548.5" rx="0.5" transform="rotate(45, 472, 549)" opacity="0.77"></rect><rect width="298" height="1" x="602" y="495.5" rx="0.5" transform="rotate(45, 751, 496)" opacity="0.83"></rect><rect width="98" height="1" x="18" y="288.5" rx="0.5" transform="rotate(45, 67, 289)" opacity="0.69"></rect><rect width="155" height="1" x="313.5" y="394.5" rx="0.5" transform="rotate(45, 391, 395)" opacity="0.67"></rect><rect width="54" height="1" x="283" y="409.5" rx="0.5" transform="rotate(45, 310, 410)" opacity="0.70"></rect><rect width="137" height="1" x="-28.5" y="415.5" rx="0.5" transform="rotate(45, 40, 416)" opacity="0.33"></rect><rect width="146" height="1" x="413" y="364.5" rx="0.5" transform="rotate(45, 486, 365)" opacity="0.38"></rect><rect width="128" height="1" x="210" y="503.5" rx="0.5" transform="rotate(45, 274, 504)" opacity="0.53"></rect><rect width="233" height="1" x="-71.5" y="113.5" rx="0.5" transform="rotate(45, 45, 114)" opacity="0.51"></rect><rect width="84" height="1" x="516" y="253.5" rx="0.5" transform="rotate(45, 558, 254)" opacity="0.35"></rect><rect width="54" height="1" x="483" y="765.5" rx="0.5" transform="rotate(45, 510, 766)" opacity="0.49"></rect><rect width="234" height="1" x="95" y="501.5" rx="0.5" transform="rotate(45, 212, 502)" opacity="0.90"></rect><rect width="162" height="1" x="-39" y="36.5" rx="0.5" transform="rotate(45, 42, 37)" opacity="0.19"></rect><rect width="199" height="1" x="463.5" y="468.5" rx="0.5" transform="rotate(45, 563, 469)" opacity="0.93"></rect><rect width="65" height="1" x="374.5" y="235.5" rx="0.5" transform="rotate(45, 407, 236)" opacity="0.63"></rect><rect width="32" height="1" x="515" y="417.5" rx="0.5" transform="rotate(45, 531, 418)" opacity="0.67"></rect><rect width="300" height="1" x="587" y="367.5" rx="0.5" transform="rotate(45, 737, 368)" opacity="0.62"></rect><rect width="45" height="1" x="459.5" y="282.5" rx="0.5" transform="rotate(45, 482, 283)" opacity="0.42"></rect><rect width="117" height="1" x="325.5" y="104.5" rx="0.5" transform="rotate(45, 384, 105)" opacity="0.10"></rect><rect width="204" height="1" x="382" y="192.5" rx="0.5" transform="rotate(45, 484, 193)" opacity="0.59"></rect><rect width="155" height="1" x="368.5" y="411.5" rx="0.5" transform="rotate(45, 446, 412)" opacity="0.09"></rect><rect width="219" height="1" x="622.5" y="33.5" rx="0.5" transform="rotate(45, 732, 34)" opacity="0.26"></rect><rect width="147" height="1" x="324.5" y="619.5" rx="0.5" transform="rotate(45, 398, 620)" opacity="0.09"></rect><rect width="153" height="1" x="477.5" y="543.5" rx="0.5" transform="rotate(45, 554, 544)" opacity="0.89"></rect><rect width="58" height="1" x="184" y="48.5" rx="0.5" transform="rotate(45, 213, 49)" opacity="0.24"></rect><rect width="156" height="1" x="661" y="279.5" rx="0.5" transform="rotate(45, 739, 280)" opacity="0.18"></rect><rect width="85" height="1" x="324.5" y="291.5" rx="0.5" transform="rotate(45, 367, 292)" opacity="0.20"></rect><rect width="219" height="1" x="86.5" y="393.5" rx="0.5" transform="rotate(45, 196, 394)" opacity="0.16"></rect><rect width="58" height="1" x="700" y="759.5" rx="0.5" transform="rotate(45, 729, 760)" opacity="0.24"></rect><rect width="26" height="1" x="431" y="494.5" rx="0.5" transform="rotate(45, 444, 495)" opacity="0.69"></rect><rect width="402" height="1" x="-106" y="728.5" rx="0.5" transform="rotate(45, 95, 729)" opacity="0.66"></rect><rect width="93" height="1" x="650.5" y="95.5" rx="0.5" transform="rotate(45, 697, 96)" opacity="0.08"></rect><rect width="86" height="1" x="366" y="163.5" rx="0.5" transform="rotate(45, 409, 164)" opacity="0.99"></rect><rect width="110" height="1" x="306" y="493.5" rx="0.5" transform="rotate(45, 361, 494)" opacity="0.18"></rect><rect width="94" height="1" x="651" y="214.5" rx="0.5" transform="rotate(45, 698, 215)" opacity="0.57"></rect><rect width="196" height="1" x="306" y="32.5" rx="0.5" transform="rotate(45, 404, 33)" opacity="0.19"></rect><rect width="180" height="1" x="678" y="658.5" rx="0.5" transform="rotate(45, 768, 659)" opacity="0.52"></rect><rect width="58" height="1" x="161" y="256.5" rx="0.5" transform="rotate(45, 190, 257)" opacity="0.87"></rect><rect width="94" height="1" x="402" y="686.5" rx="0.5" transform="rotate(45, 449, 687)" opacity="0.25"></rect><rect width="112" height="1" x="430" y="616.5" rx="0.5" transform="rotate(45, 486, 617)" opacity="0.80"></rect><rect width="190" height="1" x="281" y="686.5" rx="0.5" transform="rotate(45, 376, 687)" opacity="0.83"></rect><rect width="280" height="1" x="497" y="387.5" rx="0.5" transform="rotate(45, 637, 388)" opacity="0.47"></rect><rect width="70" height="1" x="599" y="105.5" rx="0.5" transform="rotate(45, 634, 106)" opacity="0.34"></rect><rect width="116" height="1" x="543" y="766.5" rx="0.5" transform="rotate(45, 601, 767)" opacity="0.66"></rect><rect width="68" height="1" x="317" y="356.5" rx="0.5" transform="rotate(45, 351, 357)" opacity="0.30"></rect><rect width="62" height="1" x="512" y="678.5" rx="0.5" transform="rotate(45, 543, 679)" opacity="0.69"></rect><rect width="323" height="1" x="482.5" y="495.5" rx="0.5" transform="rotate(45, 644, 496)" opacity="0.48"></rect></g></svg>